<svg width="91" height="15" viewBox="0 0 91 15" fill="none" xmlns="http://www.w3.org/2000/svg">
<path d="M10.349 11.308C10.5137 11.6753 10.52 12.0363 10.368 12.391C10.216 12.733 9.97533 13.0497 9.646 13.341C9.31667 13.6323 8.93667 13.8857 8.506 14.101C8.088 14.3163 7.689 14.4683 7.309 14.557C6.891 14.6457 6.44767 14.6837 5.979 14.671C5.523 14.671 5.06067 14.614 4.592 14.5C4.136 14.3987 3.68633 14.2467 3.243 14.044C2.81233 13.8287 2.41333 13.569 2.046 13.265C1.60267 12.8977 1.25433 12.4607 1.001 11.954C0.760333 11.4347 0.583 10.8837 0.469 10.301C0.355 9.71833 0.291667 9.13567 0.279 8.553C0.279 7.95767 0.298 7.40033 0.336 6.881C0.374 6.41233 0.469 5.92467 0.621 5.418C0.773 4.91133 0.982 4.41733 1.248 3.936C1.52667 3.442 1.856 2.986 2.236 2.568C2.62867 2.15 3.08467 1.79533 3.604 1.504C3.99667 1.276 4.43367 1.124 4.915 1.048C5.409 0.959333 5.903 0.940333 6.397 0.991C6.90367 1.029 7.37867 1.13667 7.822 1.314C8.278 1.47867 8.66433 1.70667 8.981 1.998C9.18367 2.17533 9.39267 2.42233 9.608 2.739C9.836 3.05567 10.0007 3.37867 10.102 3.708C10.2033 4.03733 10.2033 4.34767 10.102 4.639C10.0133 4.91767 9.76 5.10767 9.342 5.209C9.16467 5.25967 9.00633 5.27233 8.867 5.247C8.72767 5.209 8.601 5.152 8.487 5.076C8.373 4.98733 8.26533 4.886 8.164 4.772C8.06267 4.658 7.96767 4.544 7.879 4.43C7.575 4.06267 7.22033 3.81567 6.815 3.689C6.40967 3.54967 6.00433 3.518 5.599 3.594C5.20633 3.65733 4.83267 3.822 4.478 4.088C4.136 4.34133 3.87 4.67067 3.68 5.076C3.47733 5.50667 3.31267 5.98167 3.186 6.501C3.072 7.00767 3.00867 7.527 2.996 8.059C2.98333 8.57833 3.02767 9.085 3.129 9.579C3.243 10.073 3.433 10.51 3.699 10.89C3.90167 11.194 4.14867 11.441 4.44 11.631C4.744 11.821 5.067 11.954 5.409 12.03C5.751 12.106 6.093 12.1187 6.435 12.068C6.78967 12.0173 7.13167 11.9033 7.461 11.726C7.56233 11.6753 7.67 11.6057 7.784 11.517C7.91067 11.4157 8.03733 11.3143 8.164 11.213C8.29067 11.1117 8.41733 11.0167 8.544 10.928C8.68333 10.8393 8.829 10.776 8.981 10.738C9.209 10.662 9.456 10.6683 9.722 10.757C10.0007 10.8457 10.2097 11.0293 10.349 11.308ZM16.3561 5.912C16.7741 5.70933 17.2111 5.56367 17.6671 5.475C18.1231 5.38633 18.5728 5.36733 19.0161 5.418C19.4721 5.46867 19.9091 5.589 20.3271 5.779C20.7578 5.969 21.1505 6.235 21.5051 6.577C21.7965 6.86833 22.0498 7.223 22.2651 7.641C22.4805 8.04633 22.6388 8.44533 22.7401 8.838C22.9555 9.53467 22.9871 10.2377 22.8351 10.947C22.6831 11.6563 22.4235 12.315 22.0561 12.923C21.8788 13.2017 21.6571 13.455 21.3911 13.683C21.1378 13.8983 20.8655 14.0757 20.5741 14.215C20.1941 14.3923 19.7825 14.5127 19.3391 14.576C18.8958 14.652 18.4651 14.671 18.0471 14.633C17.2871 14.595 16.6158 14.405 16.0331 14.063C15.4631 13.721 15.0008 13.284 14.6461 12.752C14.3041 12.22 14.0761 11.6183 13.9621 10.947C13.8608 10.263 13.9051 9.56633 14.0951 8.857C14.2978 8.097 14.5891 7.48267 14.9691 7.014C15.3618 6.53267 15.8241 6.16533 16.3561 5.912ZM16.9261 8.458C16.7361 8.63533 16.5905 8.857 16.4891 9.123C16.3878 9.389 16.3245 9.66767 16.2991 9.959C16.2738 10.2377 16.2928 10.5227 16.3561 10.814C16.4321 11.0927 16.5461 11.346 16.6981 11.574C16.8248 11.764 17.0528 11.9223 17.3821 12.049C17.7115 12.1757 18.0535 12.2517 18.4081 12.277C18.8135 12.3023 19.1681 12.1947 19.4721 11.954C19.7761 11.7007 20.0041 11.3903 20.1561 11.023C20.3208 10.6557 20.3968 10.2567 20.3841 9.826C20.3715 9.39533 20.2575 9.00267 20.0421 8.648C19.8901 8.39467 19.6748 8.211 19.3961 8.097C19.1301 7.97033 18.8451 7.907 18.5411 7.907C18.2498 7.89433 17.9585 7.93867 17.6671 8.04C17.3758 8.12867 17.1288 8.268 16.9261 8.458ZM32.2722 1.219C32.5128 1.15567 32.7218 1.14933 32.8992 1.2C33.0892 1.238 33.2475 1.32033 33.3742 1.447C33.5135 1.57367 33.6148 1.732 33.6782 1.922C33.7542 2.112 33.7922 2.321 33.7922 2.549C33.8048 3.18233 33.8048 3.67633 33.7922 4.031C33.7922 4.38567 33.7922 4.696 33.7922 4.962V10.795C33.7922 11.479 33.7922 12.049 33.7922 12.505C33.7922 12.961 33.7668 13.3347 33.7162 13.626C33.6782 13.9047 33.6022 14.1137 33.4882 14.253C33.3868 14.3923 33.2285 14.4873 33.0132 14.538C32.7978 14.6013 32.5128 14.633 32.1582 14.633C31.8162 14.633 31.3855 14.633 30.8662 14.633C29.4982 14.633 28.4152 14.31 27.6172 13.664C26.8318 13.018 26.4138 11.992 26.3632 10.586C26.3378 9.978 26.4138 9.42067 26.5912 8.914C26.7685 8.40733 27.0282 7.97667 27.3702 7.622C27.7248 7.25467 28.1555 6.976 28.6622 6.786C29.1815 6.58333 29.7705 6.48833 30.4292 6.501H31.4742V3.1C31.4742 2.89733 31.4742 2.701 31.4742 2.511C31.4742 2.30833 31.4932 2.12467 31.5312 1.96C31.5692 1.78267 31.6452 1.63067 31.7592 1.504C31.8732 1.37733 32.0442 1.28233 32.2722 1.219ZM28.9662 11.764C29.2322 12.1313 29.7135 12.334 30.4102 12.372C30.5495 12.3847 30.6825 12.391 30.8092 12.391C30.9358 12.3783 31.0498 12.3593 31.1512 12.334C31.2652 12.3213 31.3728 12.3023 31.4742 12.277V8.762C31.0308 8.686 30.6255 8.64167 30.2582 8.629C29.9035 8.60367 29.5488 8.73033 29.1942 9.009C29.0042 9.161 28.8585 9.35733 28.7572 9.598C28.6558 9.826 28.5988 10.073 28.5862 10.339C28.5735 10.5923 28.5988 10.8457 28.6622 11.099C28.7255 11.3523 28.8268 11.574 28.9662 11.764ZM43.7986 11.897C43.9506 11.859 44.1026 11.8337 44.2546 11.821C44.4193 11.8083 44.565 11.8273 44.6916 11.878C44.831 11.9287 44.945 12.0173 45.0336 12.144C45.1223 12.258 45.1666 12.4227 45.1666 12.638C45.1666 12.79 45.1286 12.9357 45.0526 13.075C44.9766 13.2143 44.8816 13.341 44.7676 13.455C44.6536 13.569 44.527 13.6703 44.3876 13.759C44.2483 13.835 44.1153 13.8983 43.9886 13.949C43.6213 14.1137 43.197 14.2403 42.7156 14.329C42.247 14.4177 41.7593 14.4493 41.2526 14.424C40.5686 14.3987 39.91 14.2657 39.2766 14.025C38.656 13.7717 38.1683 13.36 37.8136 12.79C37.4843 12.2327 37.288 11.612 37.2246 10.928C37.1613 10.244 37.193 9.598 37.3196 8.99C37.459 8.25533 37.6933 7.66 38.0226 7.204C38.3646 6.73533 38.77 6.36167 39.2386 6.083C39.8086 5.75367 40.4483 5.58267 41.1576 5.57C41.867 5.55733 42.5446 5.69667 43.1906 5.988C43.6213 6.178 44.0076 6.43767 44.3496 6.767C44.6916 7.08367 44.9513 7.47 45.1286 7.926C45.1793 8.04 45.2173 8.17933 45.2426 8.344C45.2806 8.50867 45.306 8.686 45.3186 8.876C45.3313 9.05333 45.3313 9.23067 45.3186 9.408C45.306 9.58533 45.2743 9.74367 45.2236 9.883C45.1476 10.111 45.0526 10.2883 44.9386 10.415C44.8246 10.5417 44.679 10.6367 44.5016 10.7C44.3243 10.7633 44.109 10.8077 43.8556 10.833C43.615 10.8457 43.3236 10.8583 42.9816 10.871C42.6776 10.8837 42.3926 10.89 42.1266 10.89C41.8606 10.89 41.5883 10.89 41.3096 10.89C41.031 10.8773 40.7396 10.871 40.4356 10.871C40.1443 10.8583 39.815 10.8457 39.4476 10.833C39.4096 11.0863 39.4413 11.308 39.5426 11.498C39.6566 11.6753 39.8086 11.8273 39.9986 11.954C40.1886 12.068 40.404 12.1567 40.6446 12.22C40.8853 12.2833 41.1196 12.3213 41.3476 12.334C41.7783 12.3593 42.19 12.3277 42.5826 12.239C42.9753 12.1377 43.3806 12.0237 43.7986 11.897ZM42.9816 8.211C42.741 7.93233 42.4876 7.72967 42.2216 7.603C42.019 7.51433 41.8036 7.47633 41.5756 7.489C41.3603 7.489 41.1513 7.52067 40.9486 7.584C40.5813 7.67267 40.271 7.86267 40.0176 8.154C39.9923 8.17933 39.948 8.24267 39.8846 8.344C39.8213 8.43267 39.758 8.52767 39.6946 8.629C39.644 8.73033 39.606 8.82533 39.5806 8.914C39.5553 9.00267 39.568 9.047 39.6186 9.047H43.3426C43.33 8.86967 43.2983 8.724 43.2476 8.61C43.197 8.48333 43.1083 8.35033 42.9816 8.211ZM58.8435 11.308C59.0082 11.6753 59.0145 12.0363 58.8625 12.391C58.7105 12.733 58.4699 13.0497 58.1405 13.341C57.8112 13.6323 57.4312 13.8857 57.0005 14.101C56.5825 14.3163 56.1835 14.4683 55.8035 14.557C55.3855 14.6457 54.9422 14.6837 54.4735 14.671C54.0175 14.671 53.5552 14.614 53.0865 14.5C52.6305 14.3987 52.1809 14.2467 51.7375 14.044C51.3069 13.8287 50.9079 13.569 50.5405 13.265C50.0972 12.8977 49.7489 12.4607 49.4955 11.954C49.2549 11.4347 49.0775 10.8837 48.9635 10.301C48.8495 9.71833 48.7862 9.13567 48.7735 8.553C48.7735 7.95767 48.7925 7.40033 48.8305 6.881C48.8685 6.41233 48.9635 5.92467 49.1155 5.418C49.2675 4.91133 49.4765 4.41733 49.7425 3.936C50.0212 3.442 50.3505 2.986 50.7305 2.568C51.1232 2.15 51.5792 1.79533 52.0985 1.504C52.4912 1.276 52.9282 1.124 53.4095 1.048C53.9035 0.959333 54.3975 0.940333 54.8915 0.991C55.3982 1.029 55.8732 1.13667 56.3165 1.314C56.7725 1.47867 57.1589 1.70667 57.4755 1.998C57.6782 2.17533 57.8872 2.42233 58.1025 2.739C58.3305 3.05567 58.4952 3.37867 58.5965 3.708C58.6979 4.03733 58.6979 4.34767 58.5965 4.639C58.5079 4.91767 58.2545 5.10767 57.8365 5.209C57.6592 5.25967 57.5009 5.27233 57.3615 5.247C57.2222 5.209 57.0955 5.152 56.9815 5.076C56.8675 4.98733 56.7599 4.886 56.6585 4.772C56.5572 4.658 56.4622 4.544 56.3735 4.43C56.0695 4.06267 55.7149 3.81567 55.3095 3.689C54.9042 3.54967 54.4989 3.518 54.0935 3.594C53.7009 3.65733 53.3272 3.822 52.9725 4.088C52.6305 4.34133 52.3645 4.67067 52.1745 5.076C51.9719 5.50667 51.8072 5.98167 51.6805 6.501C51.5665 7.00767 51.5032 7.527 51.4905 8.059C51.4779 8.57833 51.5222 9.085 51.6235 9.579C51.7375 10.073 51.9275 10.51 52.1935 10.89C52.3962 11.194 52.6432 11.441 52.9345 11.631C53.2385 11.821 53.5615 11.954 53.9035 12.03C54.2455 12.106 54.5875 12.1187 54.9295 12.068C55.2842 12.0173 55.6262 11.9033 55.9555 11.726C56.0569 11.6753 56.1645 11.6057 56.2785 11.517C56.4052 11.4157 56.5319 11.3143 56.6585 11.213C56.7852 11.1117 56.9119 11.0167 57.0385 10.928C57.1779 10.8393 57.3235 10.776 57.4755 10.738C57.7035 10.662 57.9505 10.6683 58.2165 10.757C58.4952 10.8457 58.7042 11.0293 58.8435 11.308ZM64.6226 6.501C65.0026 6.311 65.4016 6.178 65.8196 6.102C66.2376 6.01333 66.6493 5.99433 67.0546 6.045C67.4726 6.083 67.8716 6.19067 68.2516 6.368C68.6316 6.53267 68.9863 6.77333 69.3156 7.09C69.645 7.41933 69.8983 7.78033 70.0756 8.173C70.253 8.56567 70.3796 9.00267 70.4556 9.484C70.5063 9.81333 70.5886 10.1173 70.7026 10.396C70.8166 10.6747 70.937 10.9533 71.0636 11.232C71.203 11.5107 71.3296 11.7893 71.4436 12.068C71.5703 12.3467 71.6716 12.638 71.7476 12.942C71.811 13.2333 71.7856 13.5183 71.6716 13.797C71.5703 14.063 71.355 14.2277 71.0256 14.291C70.8356 14.329 70.652 14.3163 70.4746 14.253C70.31 14.177 70.158 14.0757 70.0186 13.949C69.8793 13.8097 69.7526 13.664 69.6386 13.512C69.5373 13.3473 69.4423 13.1953 69.3536 13.056C69.0623 13.436 68.7456 13.7337 68.4036 13.949C68.0616 14.1517 67.65 14.2847 67.1686 14.348C66.7633 14.3987 66.377 14.4113 66.0096 14.386C65.6423 14.3607 65.2496 14.291 64.8316 14.177C64.287 14.0377 63.8373 13.797 63.4826 13.455C63.1406 13.1003 62.8746 12.695 62.6846 12.239C62.5073 11.7703 62.4123 11.27 62.3996 10.738C62.387 10.206 62.4503 9.68033 62.5896 9.161C62.767 8.477 63.033 7.91967 63.3876 7.489C63.7423 7.05833 64.154 6.729 64.6226 6.501ZM65.0976 8.724C64.9203 8.90133 64.781 9.11033 64.6796 9.351C64.5783 9.59167 64.515 9.845 64.4896 10.111C64.477 10.377 64.5023 10.643 64.5656 10.909C64.629 11.175 64.7303 11.4093 64.8696 11.612C64.9963 11.7893 65.2116 11.9413 65.5156 12.068C65.8196 12.182 66.1363 12.2517 66.4656 12.277C66.8456 12.3023 67.175 12.201 67.4536 11.973C67.745 11.745 67.9603 11.46 68.0996 11.118C68.2516 10.7633 68.3213 10.3897 68.3086 9.997C68.296 9.59167 68.1883 9.22433 67.9856 8.895C67.8336 8.65433 67.631 8.477 67.3776 8.363C67.137 8.249 66.8773 8.192 66.5986 8.192C66.32 8.17933 66.0413 8.22367 65.7626 8.325C65.4966 8.41367 65.275 8.54667 65.0976 8.724ZM81.0962 6.121C81.1976 6.36167 81.2039 6.62767 81.1152 6.919C81.0392 7.21033 80.8936 7.40033 80.6782 7.489C80.5642 7.53967 80.4122 7.584 80.2222 7.622C80.0322 7.64733 79.8232 7.67267 79.5952 7.698C79.3799 7.72333 79.1646 7.74233 78.9492 7.755C78.7339 7.76767 78.5502 7.774 78.3982 7.774C78.4109 8.154 78.4236 8.54667 78.4362 8.952C78.4489 9.34467 78.4616 9.731 78.4742 10.111C78.4869 10.491 78.4932 10.8583 78.4932 11.213C78.4932 11.555 78.4869 11.8653 78.4742 12.144C78.4742 12.334 78.4742 12.5557 78.4742 12.809C78.4742 13.0497 78.4552 13.284 78.4172 13.512C78.3919 13.74 78.3476 13.9427 78.2842 14.12C78.2209 14.2847 78.1259 14.3923 77.9992 14.443C77.6066 14.6077 77.2456 14.652 76.9162 14.576C76.5996 14.5127 76.3716 14.3797 76.2322 14.177C76.1309 14.0123 76.0549 13.8223 76.0042 13.607C75.9536 13.379 75.9156 13.151 75.8902 12.923C75.8776 12.6823 75.8712 12.4543 75.8712 12.239C75.8839 12.011 75.8902 11.8147 75.8902 11.65C75.9029 11.118 75.9092 10.5163 75.9092 9.845C75.9219 9.161 75.9282 8.477 75.9282 7.793H75.6432C75.4912 7.793 75.2949 7.793 75.0542 7.793C74.8262 7.78033 74.5919 7.76133 74.3512 7.736C74.1232 7.698 73.9079 7.65367 73.7052 7.603C73.5026 7.53967 73.3569 7.451 73.2682 7.337C73.1289 7.17233 73.0402 6.995 73.0022 6.805C72.9769 6.615 72.9896 6.43767 73.0402 6.273C73.1036 6.09567 73.1986 5.94367 73.3252 5.817C73.4519 5.67767 73.5976 5.589 73.7622 5.551C73.9902 5.48767 74.3132 5.456 74.7312 5.456C75.1492 5.44333 75.5419 5.44333 75.9092 5.456C75.8966 5.32933 75.8902 5.209 75.8902 5.095C75.8902 4.96833 75.8839 4.848 75.8712 4.734C75.8586 4.582 75.8522 4.392 75.8522 4.164C75.8522 3.92333 75.8649 3.689 75.8902 3.461C75.9282 3.22033 75.9852 2.99867 76.0612 2.796C76.1372 2.58067 76.2449 2.416 76.3842 2.302C76.5742 2.15 76.7642 2.06767 76.9542 2.055C77.1569 2.02967 77.3406 2.055 77.5052 2.131C77.6826 2.207 77.8282 2.321 77.9422 2.473C78.0689 2.61233 78.1576 2.77067 78.2082 2.948C78.2462 3.1 78.2779 3.28367 78.3032 3.499C78.3286 3.70167 78.3412 3.917 78.3412 4.145C78.3539 4.373 78.3602 4.601 78.3602 4.829C78.3602 5.057 78.3602 5.266 78.3602 5.456H78.5502C78.7402 5.456 78.9619 5.44967 79.2152 5.437C79.4686 5.42433 79.7156 5.43067 79.9562 5.456C80.2096 5.48133 80.4376 5.54467 80.6402 5.646C80.8429 5.73467 80.9949 5.893 81.0962 6.121ZM88.3491 11.156C88.1084 11.004 87.8361 10.8837 87.5321 10.795C87.2407 10.7063 86.9367 10.624 86.6201 10.548C86.3161 10.472 86.0184 10.3897 85.727 10.301C85.4357 10.1997 85.1697 10.0603 84.9291 9.883C84.4097 9.49033 84.1057 9.009 84.017 8.439C83.941 7.85633 84.0677 7.27367 84.397 6.691C84.5744 6.387 84.8087 6.14 85.1 5.95C85.3914 5.74733 85.7081 5.59533 86.0501 5.494C86.4047 5.38 86.7657 5.31667 87.133 5.304C87.5004 5.29133 87.8487 5.31033 88.1781 5.361C88.3934 5.399 88.6214 5.456 88.8621 5.532C89.1027 5.59533 89.3244 5.684 89.5271 5.798C89.7424 5.912 89.9324 6.05767 90.0971 6.235C90.2744 6.39967 90.4011 6.60867 90.4771 6.862C90.5277 7.02667 90.5341 7.185 90.4961 7.337C90.4707 7.489 90.4074 7.61567 90.3061 7.717C90.2174 7.81833 90.0971 7.89433 89.9451 7.945C89.8057 7.99567 89.6537 8.00833 89.4891 7.983C89.2991 7.945 89.1217 7.888 88.9571 7.812C88.7924 7.736 88.6277 7.65367 88.4631 7.565C88.2984 7.47633 88.1274 7.40033 87.9501 7.337C87.7854 7.27367 87.6081 7.242 87.4181 7.242C87.1267 7.22933 86.8861 7.28 86.696 7.394C86.506 7.508 86.373 7.64733 86.297 7.812C86.2337 7.97667 86.2401 8.154 86.3161 8.344C86.4047 8.534 86.5821 8.69867 86.848 8.838C87.0887 8.96467 87.3547 9.066 87.6461 9.142C87.9374 9.218 88.2224 9.294 88.501 9.37C88.7924 9.446 89.0711 9.53467 89.3371 9.636C89.6157 9.73733 89.8627 9.87667 90.0781 10.054C90.4961 10.396 90.7494 10.795 90.8381 11.251C90.9394 11.707 90.9141 12.1567 90.7621 12.6C90.6101 13.0433 90.3441 13.436 89.9641 13.778C89.5967 14.12 89.1597 14.348 88.6531 14.462C88.2857 14.538 87.8867 14.576 87.4561 14.576C87.0381 14.576 86.6201 14.5317 86.2021 14.443C85.7967 14.3543 85.404 14.215 85.024 14.025C84.6567 13.835 84.3464 13.5943 84.093 13.303C83.9157 13.1003 83.8207 12.8723 83.808 12.619C83.808 12.353 83.8587 12.125 83.96 11.935C84.074 11.7323 84.2324 11.593 84.4351 11.517C84.6377 11.441 84.8657 11.4853 85.1191 11.65C85.3217 11.7893 85.5624 11.9287 85.841 12.068C86.1197 12.1947 86.3984 12.296 86.6771 12.372C86.9557 12.448 87.2217 12.486 87.4751 12.486C87.7411 12.486 87.9691 12.429 88.1591 12.315C88.4377 12.1377 88.5834 11.935 88.5961 11.707C88.6087 11.4663 88.5264 11.2827 88.3491 11.156Z" fill="currentColor"/>
</svg>
