<svg width="51" height="24" viewBox="0 0 51 15" fill="none" xmlns="http://www.w3.org/2000/svg">
<path d="M10.349 11.308C10.5137 11.6753 10.52 12.0363 10.368 12.391C10.216 12.733 9.97533 13.0497 9.646 13.341C9.31667 13.6323 8.93667 13.8857 8.506 14.101C8.088 14.3163 7.689 14.4683 7.309 14.557C6.891 14.6457 6.44767 14.6837 5.979 14.671C5.523 14.671 5.06067 14.614 4.592 14.5C4.136 14.3987 3.68633 14.2467 3.243 14.044C2.81233 13.8287 2.41333 13.569 2.046 13.265C1.60267 12.8977 1.25433 12.4607 1.001 11.954C0.760333 11.4347 0.583 10.8837 0.469 10.301C0.355 9.71833 0.291667 9.13567 0.279 8.553C0.279 7.95767 0.298 7.40033 0.336 6.881C0.374 6.41233 0.469 5.92467 0.621 5.418C0.773 4.91133 0.982 4.41733 1.248 3.936C1.52667 3.442 1.856 2.986 2.236 2.568C2.62867 2.15 3.08467 1.79533 3.604 1.504C3.99667 1.276 4.43367 1.124 4.915 1.048C5.409 0.959333 5.903 0.940333 6.397 0.991C6.90367 1.029 7.37867 1.13667 7.822 1.314C8.278 1.47867 8.66433 1.70667 8.981 1.998C9.18367 2.17533 9.39267 2.42233 9.608 2.739C9.836 3.05567 10.0007 3.37867 10.102 3.708C10.2033 4.03733 10.2033 4.34767 10.102 4.639C10.0133 4.91767 9.76 5.10767 9.342 5.209C9.16467 5.25967 9.00633 5.27233 8.867 5.247C8.72767 5.209 8.601 5.152 8.487 5.076C8.373 4.98733 8.26533 4.886 8.164 4.772C8.06267 4.658 7.96767 4.544 7.879 4.43C7.575 4.06267 7.22033 3.81567 6.815 3.689C6.40967 3.54967 6.00433 3.518 5.599 3.594C5.20633 3.65733 4.83267 3.822 4.478 4.088C4.136 4.34133 3.87 4.67067 3.68 5.076C3.47733 5.50667 3.31267 5.98167 3.186 6.501C3.072 7.00767 3.00867 7.527 2.996 8.059C2.98333 8.57833 3.02767 9.085 3.129 9.579C3.243 10.073 3.433 10.51 3.699 10.89C3.90167 11.194 4.14867 11.441 4.44 11.631C4.744 11.821 5.067 11.954 5.409 12.03C5.751 12.106 6.093 12.1187 6.435 12.068C6.78967 12.0173 7.13167 11.9033 7.461 11.726C7.56233 11.6753 7.67 11.6057 7.784 11.517C7.91067 11.4157 8.03733 11.3143 8.164 11.213C8.29067 11.1117 8.41733 11.0167 8.544 10.928C8.68333 10.8393 8.829 10.776 8.981 10.738C9.209 10.662 9.456 10.6683 9.722 10.757C10.0007 10.8457 10.2097 11.0293 10.349 11.308ZM25.6281 13.208C25.6408 13.284 25.6471 13.36 25.6471 13.436C25.6598 13.4993 25.6661 13.5753 25.6661 13.664C25.6661 13.816 25.6218 13.9553 25.5331 14.082C25.4951 14.1453 25.4445 14.2087 25.3811 14.272C25.3178 14.3227 25.2418 14.367 25.1531 14.405C24.8365 14.5823 24.5008 14.6457 24.1461 14.595C23.9688 14.5443 23.8105 14.462 23.6711 14.348C23.6458 14.3227 23.6268 14.31 23.6141 14.31C23.6015 14.2973 23.5888 14.2783 23.5761 14.253C23.5635 14.2403 23.5508 14.2277 23.5381 14.215C23.5255 14.1897 23.5065 14.1707 23.4811 14.158C23.4178 14.0947 23.3671 14.0377 23.3291 13.987C23.2911 13.9237 23.2531 13.8603 23.2151 13.797C23.1898 13.7337 23.1581 13.6767 23.1201 13.626C23.0948 13.5627 23.0631 13.4993 23.0251 13.436C22.9998 13.3853 22.9745 13.341 22.9491 13.303C22.9238 13.2523 22.9048 13.2017 22.8921 13.151C22.8415 13.037 22.8098 12.9357 22.7971 12.847L22.3981 11.916C21.5241 11.916 20.6501 11.9223 19.7761 11.935C18.9148 11.935 18.0471 11.9287 17.1731 11.916L16.7741 12.847C16.7488 12.8977 16.7298 12.9483 16.7171 12.999C16.7171 13.0497 16.7045 13.1003 16.6791 13.151C16.6538 13.2017 16.6285 13.2523 16.6031 13.303C16.5905 13.341 16.5715 13.3853 16.5461 13.436C16.5081 13.4993 16.4701 13.5627 16.4321 13.626C16.4068 13.6767 16.3751 13.7337 16.3371 13.797C16.3118 13.8603 16.2801 13.9237 16.2421 13.987C16.2041 14.0377 16.1535 14.0947 16.0901 14.158C16.0648 14.1707 16.0458 14.1897 16.0331 14.215C16.0205 14.2277 16.0078 14.2403 15.9951 14.253C15.9825 14.2783 15.9698 14.2973 15.9571 14.31C15.9445 14.31 15.9255 14.3227 15.9001 14.348C15.7608 14.462 15.6025 14.5443 15.4251 14.595C15.0705 14.6457 14.7348 14.5823 14.4181 14.405C14.3295 14.367 14.2535 14.3227 14.1901 14.272C14.1268 14.2087 14.0761 14.1453 14.0381 14.082C13.9495 13.9553 13.9051 13.816 13.9051 13.664C13.9051 13.5753 13.9051 13.4993 13.9051 13.436C13.9178 13.36 13.9305 13.284 13.9431 13.208C13.9685 13.094 14.0001 12.98 14.0381 12.866C14.0761 12.752 14.0951 12.695 14.0951 12.695L18.0471 2.967L18.1611 2.663C18.1865 2.587 18.2181 2.51733 18.2561 2.454C18.2941 2.39067 18.3258 2.31467 18.3511 2.226C18.4145 2.06133 18.4841 1.91567 18.5601 1.789C18.5981 1.713 18.6425 1.64333 18.6931 1.58C18.7438 1.51667 18.7945 1.45333 18.8451 1.39C18.9211 1.28867 19.0288 1.20633 19.1681 1.143C19.3455 1.07967 19.5481 1.048 19.7761 1.048C20.0168 1.048 20.2258 1.07967 20.4031 1.143C20.5425 1.20633 20.6501 1.28867 20.7261 1.39C20.8148 1.504 20.9098 1.637 21.0111 1.789C21.0871 1.91567 21.1568 2.06133 21.2201 2.226C21.2455 2.31467 21.2771 2.39067 21.3151 2.454C21.3531 2.51733 21.3848 2.587 21.4101 2.663L21.5241 2.967L25.4761 12.695C25.4761 12.695 25.4951 12.752 25.5331 12.866C25.5711 12.98 25.6028 13.094 25.6281 13.208ZM21.1251 8.553C20.9605 8.18567 20.7895 7.80567 20.6121 7.413C20.4475 7.02033 20.2701 6.62133 20.0801 6.216C20.0295 6.102 19.9788 5.988 19.9281 5.874C19.8775 5.74733 19.8268 5.627 19.7761 5.513C19.7381 5.627 19.6938 5.74733 19.6431 5.874C19.5925 5.988 19.5418 6.102 19.4911 6.216C19.3011 6.62133 19.1175 7.02033 18.9401 7.413C18.7755 7.80567 18.6108 8.18567 18.4461 8.553L18.1041 9.389H21.4671L21.1251 8.553ZM37.1105 1.637C37.2498 1.80167 37.3195 1.97267 37.3195 2.15C37.3195 2.226 37.3132 2.30833 37.3005 2.397C37.3005 2.473 37.2942 2.54267 37.2815 2.606C37.2435 2.74533 37.1612 2.87833 37.0345 3.005C36.9332 3.081 36.7938 3.138 36.6165 3.176C36.5278 3.20133 36.4392 3.22033 36.3505 3.233C36.2618 3.24567 36.1668 3.26467 36.0655 3.29C35.9768 3.30267 35.8882 3.309 35.7995 3.309C35.7108 3.309 35.6158 3.309 35.5145 3.309H34.5455C34.3175 3.32167 34.0895 3.328 33.8615 3.328C33.6462 3.328 33.4308 3.328 33.2155 3.328C33.2282 3.72067 33.2345 4.145 33.2345 4.601C33.2345 5.04433 33.2282 5.56367 33.2155 6.159C33.2155 6.75433 33.2092 7.44467 33.1965 8.23C33.1965 9.01533 33.1965 9.92733 33.1965 10.966V12.41C33.1965 12.5367 33.2028 12.6317 33.2155 12.695C33.2155 12.7457 33.2155 12.7963 33.2155 12.847C33.2155 12.885 33.2092 12.9357 33.1965 12.999C33.1712 13.113 33.1522 13.246 33.1395 13.398C33.1395 13.4613 33.1332 13.5247 33.1205 13.588C33.1078 13.6387 33.0888 13.6957 33.0635 13.759C33.0128 13.8097 32.9875 13.8477 32.9875 13.873L32.9305 13.987C32.8672 14.1137 32.7468 14.234 32.5695 14.348C32.2908 14.4873 31.9805 14.519 31.6385 14.443C31.4232 14.4177 31.2585 14.3607 31.1445 14.272C31.0305 14.158 30.9482 14.044 30.8975 13.93C30.8215 13.7907 30.7772 13.6577 30.7645 13.531C30.7265 13.417 30.7075 13.2967 30.7075 13.17V3.404C30.6315 3.404 30.4732 3.404 30.2325 3.404C29.9918 3.404 29.7322 3.404 29.4535 3.404C29.1875 3.39133 28.9342 3.37867 28.6935 3.366C28.4528 3.35333 28.2882 3.34067 28.1995 3.328C28.1235 3.31533 28.0032 3.29633 27.8385 3.271C27.6865 3.24567 27.5598 3.22033 27.4585 3.195C27.1925 3.119 26.9835 2.99867 26.8315 2.834C26.6922 2.66933 26.6225 2.48567 26.6225 2.283C26.6225 2.207 26.6225 2.131 26.6225 2.055C26.6225 1.979 26.6352 1.90933 26.6605 1.846C26.6985 1.694 26.7998 1.56733 26.9645 1.466C27.0152 1.428 27.0912 1.38367 27.1925 1.333C27.3065 1.26967 27.4142 1.22533 27.5155 1.2C27.6675 1.14933 27.8575 1.11133 28.0855 1.086C28.1868 1.07333 28.2882 1.067 28.3895 1.067C28.4908 1.067 28.5985 1.067 28.7125 1.067C29.1558 1.067 29.5738 1.067 29.9665 1.067C30.3718 1.067 30.7962 1.06067 31.2395 1.048C31.9742 1.03533 32.7025 1.03533 33.4245 1.048C34.1592 1.048 34.8875 1.06067 35.6095 1.086C35.7742 1.09867 35.9325 1.11767 36.0845 1.143C36.2365 1.16833 36.3885 1.21267 36.5405 1.276C36.6545 1.314 36.7622 1.36467 36.8635 1.428C36.9648 1.47867 37.0472 1.54833 37.1105 1.637ZM49.9983 8.971C50.0616 9.14833 50.106 9.351 50.1313 9.579C50.1693 9.79433 50.1883 10.016 50.1883 10.244C50.1883 10.472 50.1693 10.7 50.1313 10.928C50.106 11.1433 50.068 11.3333 50.0173 11.498C49.8146 12.2073 49.4093 12.8027 48.8013 13.284C48.1933 13.7527 47.4966 14.0947 46.7113 14.31C45.9386 14.5253 45.1343 14.6013 44.2983 14.538C43.475 14.4747 42.7403 14.2657 42.0943 13.911C41.689 13.683 41.3406 13.4043 41.0493 13.075C40.758 12.7457 40.511 12.3783 40.3083 11.973C40.2323 11.8337 40.1816 11.6753 40.1563 11.498C40.1436 11.308 40.1626 11.1307 40.2133 10.966C40.264 10.7887 40.3463 10.6367 40.4603 10.51C40.5743 10.3707 40.7326 10.2757 40.9353 10.225C41.062 10.1997 41.2013 10.187 41.3533 10.187C41.518 10.187 41.6763 10.2123 41.8283 10.263C41.9803 10.301 42.1196 10.3707 42.2463 10.472C42.373 10.5607 42.4743 10.6873 42.5503 10.852C42.6896 11.118 42.886 11.365 43.1393 11.593C43.4053 11.8083 43.684 11.9857 43.9753 12.125C44.3933 12.2643 44.8113 12.3213 45.2293 12.296C45.66 12.2707 46.0463 12.1757 46.3883 12.011C46.743 11.8463 47.028 11.6247 47.2433 11.346C47.4586 11.0547 47.5663 10.7253 47.5663 10.358C47.5663 10.054 47.522 9.807 47.4333 9.617C47.3446 9.41433 47.218 9.24967 47.0533 9.123C46.9013 8.98367 46.7113 8.86967 46.4833 8.781C46.268 8.69233 46.0273 8.61633 45.7613 8.553C45.4573 8.48967 45.147 8.44533 44.8303 8.42C44.5263 8.39467 44.216 8.363 43.8993 8.325C43.5826 8.287 43.2723 8.23633 42.9683 8.173C42.6643 8.10967 42.3666 8.01467 42.0753 7.888C41.4926 7.64733 41.0493 7.28 40.7453 6.786C40.4413 6.292 40.2576 5.76 40.1943 5.19C40.1436 4.62 40.2133 4.05633 40.4033 3.499C40.5933 2.929 40.8973 2.44133 41.3153 2.036C41.7206 1.66867 42.202 1.409 42.7593 1.257C43.3293 1.09233 43.9563 0.997333 44.6403 0.972C45.0203 0.959333 45.4003 0.971999 45.7803 1.01C46.173 1.048 46.5466 1.11133 46.9013 1.2C47.2686 1.28867 47.6043 1.40267 47.9083 1.542C48.225 1.68133 48.4973 1.846 48.7253 2.036C48.89 2.16267 49.0546 2.33367 49.2193 2.549C49.384 2.75167 49.5106 2.97333 49.5993 3.214C49.688 3.442 49.7133 3.66367 49.6753 3.879C49.65 4.09433 49.517 4.278 49.2763 4.43C49.0736 4.55667 48.8773 4.61367 48.6873 4.601C48.51 4.57567 48.339 4.51867 48.1743 4.43C48.0096 4.32867 47.8513 4.21467 47.6993 4.088C47.5473 3.96133 47.408 3.84733 47.2813 3.746C46.9393 3.49267 46.515 3.32167 46.0083 3.233C45.5016 3.14433 45.0266 3.12533 44.5833 3.176C44.3046 3.214 44.045 3.27733 43.8043 3.366C43.5636 3.45467 43.3546 3.575 43.1773 3.727C43.0126 3.879 42.8796 4.069 42.7783 4.297C42.6896 4.51233 42.658 4.75933 42.6833 5.038C42.696 5.24067 42.753 5.41167 42.8543 5.551C42.9683 5.69033 43.1013 5.80433 43.2533 5.893C43.418 5.98167 43.5953 6.05133 43.7853 6.102C43.9753 6.15267 44.1653 6.19067 44.3553 6.216C44.9253 6.292 45.4953 6.349 46.0653 6.387C46.6353 6.425 47.1926 6.55167 47.7373 6.767C48.2946 6.98233 48.7696 7.27367 49.1623 7.641C49.555 8.00833 49.8336 8.45167 49.9983 8.971Z" fill="currentColor"/>
</svg>
